<svg xmlns="http://www.w3.org/2000/svg" width="89" height="51" fill="none"><path fill="#41C9B7" d="M37.143 6.103c-.432-.59-.914-1.18-1.446-1.693a14.446 14.446 0 0 0-4.72-3.205A14.322 14.322 0 0 0 25.219 0c-2.004 0-3.932.41-5.784 1.18-1.776.743-3.349 1.846-4.719 3.205A16.689 16.689 0 0 0 13.32 6a2.943 2.943 0 0 0 .203 3.795l.05.077c1.218 1.359 3.35 1.205 4.44-.282l.228-.308c.483-.59.787-1.308.99-2.051.71-2.667 3.146-4.667 6.038-4.667 2.918 0 5.379 2.051 6.064 4.795.203.795.533 1.538 1.015 2.18.025.025.025.05.05.05 1.091 1.488 3.222 1.642 4.491.308a2.994 2.994 0 0 0 .812-2.05 2.752 2.752 0 0 0-.558-1.744Z"/><path fill="#41C9B7" d="M29.303 7.615c-.05-.128-.076-.256-.152-.384-.05-.128-.127-.257-.178-.385-.025-.025-.025-.077-.05-.102 0-.026-.026-.052-.051-.077a3.228 3.228 0 0 0-.634-.795 4.217 4.217 0 0 0-2.994-1.257 4.2 4.2 0 0 0-3.603 2.052 4.354 4.354 0 0 0-.609 2.205c0 2.359 1.878 4.282 4.212 4.282a4.217 4.217 0 0 0 2.994-1.256 4.83 4.83 0 0 0 .634-.795c.025-.052.076-.129.101-.18.076-.128.127-.256.178-.384l.152-.385c.05-.128.076-.282.101-.41a4.84 4.84 0 0 0 .077-.872c0-.308-.026-.59-.077-.872-.025-.103-.05-.23-.1-.385ZM13.32 44.923c.43.59.913 1.18 1.445 1.692a14.445 14.445 0 0 0 4.72 3.206c1.826.794 3.78 1.179 5.784 1.179s3.932-.41 5.784-1.18c1.776-.743 3.35-1.846 4.72-3.205A16.7 16.7 0 0 0 37.167 45a2.943 2.943 0 0 0-.203-3.795l-.051-.077c-1.218-1.359-3.349-1.205-4.44.282l-.228.308c-.482.59-.787 1.308-.99 2.051-.71 2.693-3.146 4.667-6.038 4.667-2.918 0-5.378-2.051-6.064-4.795-.203-.795-.532-1.538-1.014-2.18-.026-.025-.026-.05-.051-.05-1.091-1.488-3.222-1.642-4.49-.308a2.994 2.994 0 0 0-.813 2.05c-.025.616.153 1.232.533 1.77Z"/><path fill="#41C9B7" d="M21.159 43.385c.05.128.076.256.152.384.05.129.127.257.178.385.025.025.025.077.05.102 0 .026.026.052.051.077.178.308.38.565.634.795a4.217 4.217 0 0 0 2.994 1.257 4.2 4.2 0 0 0 3.603-2.052c.38-.64.609-1.41.609-2.205 0-2.359-1.878-4.282-4.212-4.282a4.217 4.217 0 0 0-2.994 1.257c-.228.23-.456.512-.634.794-.025.052-.076.129-.101.18-.076.128-.127.256-.178.385l-.152.384c-.05.128-.076.282-.102.41a4.85 4.85 0 0 0-.076.872c0 .308.026.59.076.872.026.103.051.256.102.385ZM6.038 13.461a12.96 12.96 0 0 0-1.674 1.462 14.618 14.618 0 0 0-3.172 4.77A14.864 14.864 0 0 0 0 25.537c0 2.026.406 3.975 1.167 5.847.736 1.794 1.827 3.384 3.171 4.769.508.513 1.04.974 1.599 1.41a2.866 2.866 0 0 0 3.755-.205l.076-.051c1.344-1.231 1.192-3.385-.28-4.487-.1-.078-.202-.154-.304-.231-.583-.488-1.294-.795-2.03-1a6.38 6.38 0 0 1-4.617-6.128 6.336 6.336 0 0 1 4.744-6.129c.787-.205 1.523-.538 2.157-1.025.025-.026.05-.026.05-.052 1.472-1.102 1.624-3.256.305-4.538a2.93 2.93 0 0 0-2.03-.82 2.84 2.84 0 0 0-1.725.563Z"/><path fill="#41C9B7" d="M7.535 21.384c-.127.052-.254.077-.38.154-.127.052-.254.129-.381.18-.025.026-.076.026-.101.051-.026 0-.051.026-.077.051-.304.18-.558.385-.786.641a4.307 4.307 0 0 0-1.243 3.026c0 1.539.812 2.898 2.03 3.641a4.24 4.24 0 0 0 2.181.616 4.245 4.245 0 0 0 4.237-4.257c0-1.18-.482-2.256-1.243-3.026a4.797 4.797 0 0 0-.786-.64c-.051-.026-.127-.078-.178-.103a2.547 2.547 0 0 0-.38-.18c-.128-.05-.254-.102-.381-.154-.127-.05-.28-.076-.406-.102a4.703 4.703 0 0 0-.863-.077c-.304 0-.583.026-.862.077-.102.026-.229.051-.38.102ZM16.592 19.59h3.096l1.725 8.769 2.13-8.77h3.198l2.03 8.77 1.724-8.77h3.121l-3.095 12.026H27.02l-1.903-7.897-1.98 7.923h-3.5L16.592 19.59ZM35.087 19.59h2.892v12.025h-2.892V19.59ZM39.451 19.59h9.21v2.359h-3.146v9.692h-2.892v-9.692h-3.146v-2.36h-.026ZM57.515 26.667h-4.49v4.948h-2.893V19.59h2.893v4.718h4.516V19.59h2.892v12.025H57.54v-4.948h-.026ZM66.116 19.59h3.425l3.349 8.333 3.298-8.333h3.4v12.025h-2.893V24.41l-2.664 7.231h-2.334l-2.69-7.256v7.23h-2.891V19.59ZM88.975 21.949h-4.39v2.436h3.882v2.256h-3.881v2.641h4.389v2.359h-7.282V19.59H89v2.359h-.025Z"/></svg>