<svg width="89" height="51" viewBox="0 0 89 51" fill="none" xmlns="http://www.w3.org/2000/svg">
<path d="M37.1427 6.10256C36.7114 5.51282 36.2294 4.92308 35.6966 4.41026C34.3265 3.02564 32.7536 1.94872 30.9776 1.20513C29.1509 0.410256 27.2228 0 25.2185 0C23.2142 0 21.286 0.410256 19.434 1.17949C17.658 1.92308 16.085 3.02564 14.715 4.38461C14.2076 4.89744 13.7509 5.4359 13.3196 6C12.457 7.15384 12.5331 8.74359 13.5226 9.79487L13.5733 9.87179C14.7911 11.2308 16.9223 11.0769 18.0132 9.58974C18.0893 9.48718 18.1654 9.38461 18.2415 9.28205C18.7236 8.69231 19.028 7.97436 19.231 7.23077C19.9414 4.5641 22.377 2.5641 25.2692 2.5641C28.1868 2.5641 30.6478 4.61538 31.3328 7.35897C31.5358 8.15384 31.8656 8.89743 32.3476 9.53846C32.373 9.5641 32.373 9.58974 32.3984 9.58974C33.4893 11.0769 35.6205 11.2308 36.889 9.89743C37.4218 9.33333 37.7009 8.58974 37.7009 7.84615C37.7262 7.23077 37.5233 6.61538 37.1427 6.10256Z" fill="white"/>
<path d="M29.3031 7.61523C29.2523 7.48703 29.227 7.35882 29.1508 7.23062C29.1001 7.10241 29.024 6.97421 28.9732 6.846C28.9479 6.82036 28.9479 6.76908 28.9225 6.74344C28.9225 6.7178 28.8971 6.69216 28.8718 6.66652C28.6942 6.35882 28.4912 6.10241 28.2375 5.87164C27.4764 5.10241 26.4108 4.61523 25.2438 4.61523C23.7215 4.61523 22.3769 5.43575 21.6411 6.66652C21.2606 7.30754 21.0322 8.07677 21.0322 8.87164C21.0322 11.2306 22.9097 13.1537 25.2438 13.1537C26.4108 13.1537 27.4764 12.6665 28.2375 11.8973C28.4658 11.6665 28.6942 11.3845 28.8718 11.1024C28.8971 11.0511 28.9479 10.9742 28.9732 10.9229C29.0494 10.7947 29.1001 10.6665 29.1508 10.5383C29.2016 10.4101 29.2523 10.2819 29.3031 10.1537C29.3538 10.0255 29.3792 9.87164 29.4045 9.74344C29.4553 9.46139 29.4807 9.17934 29.4807 8.87164C29.4807 8.56395 29.4553 8.2819 29.4045 7.99985C29.3792 7.89729 29.3538 7.76908 29.3031 7.61523Z" fill="white"/>
<path d="M13.3192 44.9233C13.7505 45.5131 14.2326 46.1028 14.7653 46.6156C16.1354 48.0002 17.7083 49.0772 19.4843 49.8208C21.311 50.6156 23.2645 51.0002 25.2688 51.0002C27.2731 51.0002 29.2013 50.59 31.0533 49.8208C32.8293 49.0772 34.4022 47.9746 35.7723 46.6156C36.2797 46.1028 36.7363 45.5643 37.1677 45.0002C38.0303 43.8464 37.9541 42.2567 36.9647 41.2054L36.9139 41.1284C35.6961 39.7695 33.565 39.9233 32.4741 41.4105C32.398 41.5131 32.3219 41.6156 32.2457 41.7182C31.7637 42.3079 31.4592 43.0259 31.2563 43.7695C30.5459 46.4618 28.1103 48.4361 25.2181 48.4361C22.3004 48.4361 19.8395 46.3849 19.1545 43.6413C18.9515 42.8464 18.6217 42.1028 18.1396 41.4618C18.1143 41.4361 18.1143 41.4105 18.0889 41.4105C16.998 39.9233 14.8668 39.7695 13.5983 41.1028C13.0655 41.6669 12.7864 42.4105 12.7864 43.1541C12.7611 43.7695 12.9387 44.3849 13.3192 44.9233Z" fill="white"/>
<path d="M21.1588 43.3846C21.2095 43.5129 21.2349 43.6411 21.311 43.7693C21.3618 43.8975 21.4379 44.0257 21.4886 44.1539C21.514 44.1795 21.514 44.2308 21.5394 44.2564C21.5394 44.2821 21.5647 44.3077 21.5901 44.3334C21.7677 44.6411 21.9707 44.8975 22.2244 45.1282C22.9855 45.8975 24.0511 46.3846 25.2181 46.3846C26.7403 46.3846 28.085 45.5641 28.8207 44.3334C29.2013 43.6923 29.4296 42.9231 29.4296 42.1282C29.4296 39.7693 27.5522 37.8462 25.2181 37.8462C24.0511 37.8462 22.9855 38.3334 22.2244 39.1026C21.996 39.3334 21.7677 39.6154 21.5901 39.8975C21.5647 39.9488 21.514 40.0257 21.4886 40.077C21.4125 40.2052 21.3618 40.3334 21.311 40.4616C21.2603 40.5898 21.2095 40.718 21.1588 40.8462C21.1081 40.9744 21.0827 41.1282 21.0573 41.2564C21.0066 41.5385 20.9812 41.8205 20.9812 42.1282C20.9812 42.4359 21.0066 42.718 21.0573 43C21.0827 43.1026 21.1081 43.2564 21.1588 43.3846Z" fill="white"/>
<path d="M6.03822 13.4616C5.45469 13.8975 4.87117 14.3846 4.36376 14.9231C2.99374 16.3077 1.92817 17.8975 1.19242 19.6923C0.405931 21.5385 0 23.5128 0 25.5385C0 27.5641 0.405931 29.5128 1.16705 31.3846C1.9028 33.1795 2.99374 34.7693 4.33838 36.1539C4.8458 36.6667 5.37858 37.1282 5.93674 37.5641C7.07842 38.4359 8.6514 38.359 9.6916 37.359L9.76771 37.3077C11.1124 36.0769 10.9601 33.9231 9.48863 32.8205C9.38715 32.7436 9.28567 32.6667 9.18418 32.5898C8.60066 32.1026 7.89028 31.7949 7.15453 31.5898C4.51598 30.8462 2.53707 28.3846 2.53707 25.4616C2.53707 22.5128 4.56672 20.0257 7.28138 19.3334C8.06787 19.1282 8.80362 18.7949 9.43789 18.3077C9.46326 18.2821 9.48863 18.2821 9.48863 18.2564C10.9601 17.1539 11.1124 15 9.79308 13.718C9.23492 13.1795 8.49917 12.8975 7.76342 12.8975C7.15453 12.8975 6.54563 13.0769 6.03822 13.4616Z" fill="white"/>
<path d="M7.53514 21.3846C7.40829 21.4358 7.28143 21.4615 7.15458 21.5384C7.02773 21.5897 6.90087 21.6666 6.77402 21.7179C6.74865 21.7435 6.69791 21.7435 6.67254 21.7692C6.64717 21.7692 6.6218 21.7948 6.59643 21.8205C6.29198 22 6.03827 22.2051 5.80993 22.4615C5.04882 23.2307 4.56677 24.3076 4.56677 25.4871C4.56677 27.0256 5.37863 28.3846 6.59643 29.1282C7.23069 29.5128 7.99181 29.7435 8.7783 29.7435C11.1124 29.7435 13.0152 27.8461 13.0152 25.4871C13.0152 24.3076 12.5332 23.2307 11.772 22.4615C11.5437 22.2307 11.2646 22 10.9856 21.8205C10.9348 21.7948 10.8587 21.7435 10.808 21.7179C10.6811 21.641 10.5542 21.5897 10.4274 21.5384C10.3005 21.4871 10.1737 21.4358 10.0468 21.3846C9.91998 21.3333 9.76776 21.3076 9.64091 21.282C9.36183 21.2307 9.08275 21.2051 8.7783 21.2051C8.47385 21.2051 8.19478 21.2307 7.9157 21.282C7.81422 21.3076 7.68736 21.3333 7.53514 21.3846Z" fill="white"/>
<path d="M16.5923 19.5898H19.6875L21.4127 28.3591L23.5438 19.5898H26.7406L28.7702 28.3591L30.4954 19.5898H33.616L30.5208 31.6155H27.0196L25.1168 23.718L23.1379 31.6411H19.6368L16.5923 19.5898Z" fill="white"/>
<path d="M35.0872 19.5898H37.9794V31.6155H35.0872V19.5898Z" fill="white"/>
<path d="M39.4512 19.5898H48.6607V21.9488H45.5148V31.6411H42.6225V21.9488H39.4765V19.5898H39.4512Z" fill="white"/>
<path d="M57.5152 26.6668H53.0246V31.6155H50.1323V19.5898H53.0246V24.3078H57.5406V19.5898H60.4328V31.6155H57.5406V26.6668H57.5152Z" fill="white"/>
<path d="M66.1156 19.5898H69.5406L72.8896 27.9232L76.1878 19.5898H79.5874V31.6155H76.6952V24.4104L74.0312 31.6411H71.6971L69.0079 24.3847V31.6155H66.1156V19.5898Z" fill="white"/>
<path d="M88.9747 21.9488H84.5856V24.3847H88.4673V26.6411H84.5856V29.2821H88.9747V31.6411H81.6934V19.5898H89.0001V21.9488H88.9747Z" fill="white"/>
</svg>
